Coordinates
version=1
nRows=16
nColumns=42
inDegrees=yes

Units are S.I. units (second, meters, Newtons, ...)
If the header above contains a line with 'inDegrees', this indicates whether rotational values are in degrees (yes) or radians (no).

endheader
time	pelvis_tilt	pelvis_list	pelvis_rotation	pelvis_tx	pelvis_ty	pelvis_tz	hip_flexion_r	hip_adduction_r	hip_rotation_r	knee_angle_r	knee_adduction_r	knee_angle_r_beta	ankle_angle_r	subtalar_angle_r	mtp_angle_r	hip_flexion_l	hip_adduction_l	hip_rotation_l	knee_angle_l	knee_adduction_l	knee_angle_l_beta	ankle_angle_l	subtalar_angle_l	mtp_angle_l	lumbar_extension	lumbar_bending	lumbar_rotation	arm_flex_r	arm_add_r	arm_rot_r	elbow_flex_r	pro_sup_r	wrist_flex_r	wrist_dev_r	arm_flex_l	arm_add_l	arm_rot_l	elbow_flex_l	pro_sup_l	wrist_flex_l	wrist_dev_l
      1.12000000	      6.51809866	     -2.48611556	     -1.93991444	     -0.18954925	      1.02565844	      0.22315089	      1.94444062	      1.36968969	     -0.34965973	     19.47389597	      7.62186444	      0.33988360	      5.93212010	     -4.96953641	     -7.59056658	     13.13786497	    -14.20646414	     -8.65070522	     61.14376496	      7.74672958	      1.06716002	     -5.18675957	    -15.18580503	     -7.59056658	    -18.83596853	      3.16344891	      3.53525072	     11.47418417	    -11.29760198	    -20.24699250	     17.02978841	     90.00000001	      0.00000000	      0.00000000	     -0.71414185	    -11.09220843	    -11.28143798	     21.12965771	     90.00000001	      0.00000000	      0.00000000
      1.13000000	      6.57180719	     -2.43743497	     -2.19859057	     -0.17613615	      1.02664329	      0.22370856	      0.56528996	      1.27574825	     -0.00184457	     18.50124630	      7.71494084	      0.32290766	      6.38360140	     -4.48803717	     -7.58872405	     13.88957018	    -14.06825798	     -8.47952569	     58.99338748	      8.26723131	      1.02962885	     -4.29571900	    -15.24124234	     -7.58872405	    -18.89083312	      2.95007897	      3.94164858	     12.37420141	    -11.60142341	    -20.03285876	     17.80808670	     90.00000001	      0.00000000	      0.00000000	     -1.52646807	    -10.88836166	    -11.51322899	     20.29913400	     90.00000001	      0.00000000	      0.00000000
      1.14000000	      6.49405487	     -2.45272085	     -2.41378950	     -0.16285590	      1.02722901	      0.22426109	     -0.67043078	      1.29479341	      0.49184529	     17.50541902	      7.76911124	      0.30552720	      6.57370249	     -4.69577661	     -7.57898361	     14.71330518	    -13.98657460	     -8.05938373	     56.60941614	      8.94217258	      0.98802070	     -3.82020465	    -15.94407099	     -7.57898361	    -18.82534784	      2.81315218	      4.32843922	     12.88427151	    -11.94956874	    -18.75472845	     19.25721505	     90.00000001	      0.00000000	      0.00000000	     -1.67276970	    -10.46301715	    -13.96625725	     18.31428895	     90.00000001	      0.00000000	      0.00000000
      1.15000000	      6.36847174	     -2.43231338	     -2.63725671	     -0.14962382	      1.02732723	      0.22467237	     -1.76670619	      1.20982234	      0.69261293	     16.69364648	      7.82460364	      0.29135910	      7.01065892	     -4.14532198	     -7.57750483	     15.55452352	    -13.84611668	     -8.22607527	     54.14674180	      9.07449308	      0.94503892	     -2.94196934	    -15.91449135	     -7.57750483	    -18.72291524	      2.64286199	      4.63906372	     13.82939164	    -12.24743021	    -18.61126045	     20.05801505	     90.00000001	      0.00000000	      0.00000000	     -2.65835146	    -10.35099351	    -14.15480945	     17.92255839	     90.00000001	      0.00000000	      0.00000000
      1.16000000	      6.26865058	     -2.42544666	     -2.83308292	     -0.13637644	      1.02718507	      0.22500180	     -2.90907015	      1.12927211	      0.96124908	     15.84650142	      7.89752455	      0.27657362	      7.54839657	     -3.63372445	     -7.57569760	     16.24782185	    -13.70796956	     -8.25371336	     51.42834713	      9.32030641	      0.89759399	     -2.33816311	    -16.16809785	     -7.57569760	    -18.65034752	      2.49189076	      4.98237978	     14.62393923	    -12.57764642	    -18.33000601	     20.99362944	     90.00000001	      0.00000000	      0.00000000	     -3.52442015	    -10.21990638	    -14.49543029	     17.43439371	     90.00000001	      0.00000000	      0.00000000
      1.17000000	      5.94074820	     -2.52782791	     -3.01969150	     -0.12325315	      1.02642493	      0.22535781	     -3.66137987	      1.23562944	      0.93771226	     15.30658694	      7.77426607	      0.26715034	      7.90609440	     -3.29722323	     -7.57466121	     17.20741451	    -13.70647726	     -8.64429295	     48.72867495	      9.19910781	      0.85047582	     -1.86316452	    -16.13770221	     -7.57466121	    -18.34862521	      2.46490243	      5.28437959	     15.48083846	    -12.85249962	    -18.13967386	     21.83785365	     90.00000001	      0.00000000	      0.00000000	     -4.52292391	    -10.11062188	    -14.68118601	     17.06755825	     90.00000001	      0.00000000	      0.00000000
      1.18000000	      5.85293117	     -2.41331936	     -3.19776892	     -0.11000278	      1.02571938	      0.22532215	     -4.82965059	      0.92143563	      1.41892553	     14.40192272	      8.05551005	      0.25136097	      8.57223266	     -2.72538670	     -7.57321002	     17.66600680	    -13.41202938	     -8.76473253	     45.60580525	      9.41426066	      0.79597146	     -1.33112374	    -16.55566457	     -7.57321002	    -18.31071966	      2.22559110	      5.55498382	     16.19720078	    -13.23485441	    -17.72841048	     22.93173799	     90.00000001	      0.00000000	      0.00000000	     -5.33878777	    -10.00528028	    -15.06671295	     16.56081580	     90.00000001	      0.00000000	      0.00000000
      1.19000000	      5.66913429	     -2.46770360	     -3.33941339	     -0.09680629	      1.02461973	      0.22523291	     -5.81856494	      0.85674675	      1.67055854	     13.68122535	      8.15800002	      0.23878243	      9.02819505	     -2.61822800	     -7.56305591	     18.21207800	    -13.31393620	     -8.92396285	     42.45351037	      9.52595311	      0.74095353	     -1.31203994	    -17.12357110	     -7.56305591	    -18.19676122	      2.18570885	      5.82554665	     16.06068225	    -13.95310706	    -14.98352194	     25.49496907	     90.00000001	      0.00000000	      0.00000000	     -5.50123349	     -9.60590190	    -18.33955566	     14.95421841	     90.00000001	      0.00000000	      0.00000000
      1.20000000	      5.46603506	     -2.45114120	     -3.50523485	     -0.08353643	      1.02322668	      0.22504864	     -6.73261265	      0.68832504	      1.81649460	     13.08106878	      8.26270819	      0.22830772	      9.63673307	     -2.16551510	     -7.56153007	     18.67470314	    -13.14212071	     -9.36935272	     39.17402257	      9.48487569	      0.68371568	     -0.91195254	    -16.98988593	     -7.56153007	    -18.04096116	      2.06532314	      6.09088388	     16.83871211	    -14.31667760	    -14.95297046	     26.37081313	     90.00000001	      0.00000000	      0.00000000	     -6.40286841	     -9.49136130	    -18.51203047	     14.57087501	     90.00000001	      0.00000000	      0.00000000
      1.21000000	      5.33082326	     -2.41932039	     -3.64546543	     -0.07019910	      1.02168538	      0.22468696	     -7.71579195	      0.46473354	      1.93919449	     12.49437590	      8.40512352	      0.21806800	     10.28089185	     -1.72510469	     -7.55994215	     18.94958058	    -12.93502049	     -9.75603976	     35.73502042	      9.52429834	      0.62369376	     -0.64467300	    -16.88375134	     -7.55994215	    -17.96069254	      1.93947364	      6.34499134	     17.47066477	    -14.73332499	    -14.70546110	     27.44763045	     90.00000001	      0.00000000	      0.00000000	     -7.23617228	     -9.36318365	    -18.73318926	     14.11082491	     90.00000001	      0.00000000	      0.00000000
      1.22000000	      5.19763073	     -2.40628284	     -3.78296173	     -0.05684109	      1.01994268	      0.22422472	     -8.64580443	      0.25772456	      1.97321111	     12.03566976	      8.52267049	      0.21006207	     10.92853190	     -1.23717726	     -7.55476116	     19.11369051	    -12.74688431	    -10.01070722	     32.15660355	      9.67245463	      0.56123861	     -0.60600702	    -16.92403913	     -7.55476116	    -17.90265525	      1.84263288	      6.60835379	     17.62201826	    -15.36145383	    -13.43863863	     29.40411282	     90.00000001	      0.00000000	      0.00000000	     -7.79121397	     -9.18958058	    -19.73575782	     13.29154245	     90.00000001	      0.00000000	      0.00000000
      1.23000000	      5.12823680	     -2.36510425	     -3.90799601	     -0.04336611	      1.01806032	      0.22366522	     -9.63426659	     -0.00043456	      2.01037995	     11.60904295	      8.66701180	      0.20261602	     11.60666373	     -0.77468074	     -7.54992031	     19.10693708	    -12.53665554	    -10.35292479	     28.50137349	      9.83250407	      0.49744281	     -0.39648790	    -16.47437707	     -7.54992031	    -17.89729255	      1.70431837	      6.82643455	     18.04121104	    -15.85967946	    -12.79903670	     30.76366398	     90.00000001	      0.00000000	      0.00000000	     -8.43778392	     -9.06568009	    -20.53230584	     12.73646481	     90.00000001	      0.00000000	      0.00000000
      1.24000000	      5.10580844	     -2.31862291	     -4.03521296	     -0.02975081	      1.01606485	      0.22305637	    -10.65295886	     -0.25498607	      2.05321635	     11.23575024	      8.77462667	      0.19610084	     12.25674792	     -0.40448750	     -7.54856315	     18.95960495	    -12.31800738	    -10.77091481	     24.82411361	      9.98887392	      0.43326252	     -0.05050466	    -15.46035069	     -7.54856315	    -17.93296557	      1.56172356	      7.01375570	     18.66648628	    -16.27975480	    -12.62997259	     31.68301446	     90.00000001	      0.00000000	      0.00000000	     -9.21574684	     -9.00262068	    -20.70170103	     12.51049332	     90.00000001	      0.00000000	      0.00000000
      1.25000000	      5.08577127	     -2.30348642	     -4.13585082	     -0.01610395	      1.01390868	      0.22241967	    -11.61801333	     -0.47312070	      2.08356186	     10.99168553	      8.88617130	      0.19184110	     12.86367163	     -0.07284340	     -7.54738942	     18.75614080	    -12.15402282	    -11.12433961	     21.19033444	     10.23830464	      0.36984111	      0.16787178	    -14.30640531	     -7.54738942	    -17.97993001	      1.44826308	      7.21901548	     19.14488736	    -16.72297828	    -12.35351418	     32.74713361	     90.00000001	      0.00000000	      0.00000000	     -9.91244225	     -8.94939067	    -20.89479129	     12.31117411	     90.00000001	      0.00000000	      0.00000000
      1.26000000	      5.11119906	     -2.29087487	     -4.21341635	     -0.00234970	      1.01165588	      0.22174451	    -12.61130900	     -0.68037673	      2.08110639	     10.81097260	      8.98214028	      0.18868707	     13.43447188	      0.26203008	     -7.54621547	     18.45537344	    -11.99294122	    -11.46078320	     17.67021038	     10.52509492	      0.30840335	      0.39235309	    -12.96786732	     -7.54621547	    -18.07494647	      1.33016678	      7.38042668	     19.50287750	    -17.17949369	    -11.97323813	     33.95785438	     90.00000001	      0.00000000	      0.00000000	    -10.55210912	     -8.91378574	    -21.13777635	     12.13581944	     90.00000001	      0.00000000	      0.00000000
      1.27000000	      5.11776154	     -2.34190845	     -4.29475094	      0.01140540	      1.00925132	      0.22108915	    -13.49793184	     -0.80378771	      2.06973055	     10.81895245	      9.04870381	      0.18882634	     13.97600471	      0.78861169	     -7.54305237	     18.20111709	    -11.94877074	    -11.89671649	     14.46688261	     10.86281236	      0.25249473	      0.51200785	    -11.58600941	     -7.54305237	    -18.18021566	      1.28357957	      7.55805340	     19.38816686	    -17.83819790	    -10.84024903	     36.08819802	     90.00000001	      0.00000000	      0.00000000	    -10.99998593	     -8.83563224	    -21.95682456	     11.80562481	     90.00000001	      0.00000000	      0.00000000
